<svg width="151" height="27" viewBox="0 0 151 27" fill="none" xmlns="http://www.w3.org/2000/svg">
<path d="M2.64 3V23H0.4V0.919998H15.28V3H2.64ZM32.1133 11.064C32.4119 10.36 32.5613 9.592 32.5613 8.76C32.5613 7.928 32.4119 7.16 32.1133 6.456C31.8359 5.752 31.4199 5.144 30.8653 4.632C30.3319 4.12 29.6813 3.72533 28.9133 3.448C28.1453 3.14933 27.2813 3 26.3213 3H19.2813V14.52H26.3213C27.2813 14.52 28.1453 14.3813 28.9133 14.104C29.6813 13.8053 30.3319 13.4 30.8653 12.888C31.4199 12.376 31.8359 11.768 32.1133 11.064ZM34.8013 8.76C34.8013 9.89067 34.5986 10.936 34.1933 11.896C33.7879 12.8347 33.2119 13.656 32.4653 14.36C31.7399 15.064 30.8546 15.6187 29.8093 16.024C28.7639 16.408 27.6013 16.6 26.3213 16.6H19.2813V23H17.0413V0.919998H26.3213C27.6013 0.919998 28.7639 1.12267 29.8093 1.528C30.8546 1.912 31.7399 2.456 32.4653 3.16C33.2119 3.864 33.7879 4.696 34.1933 5.656C34.5986 6.616 34.8013 7.65067 34.8013 8.76ZM54.645 23H52.405L50.965 17.4H38.165L36.725 23H34.485L39.925 0.919998H49.205L54.645 23ZM38.645 15.32H50.485L47.445 3H41.685L38.645 15.32ZM57.0425 23V0.919998H59.2825V20.92H71.2825V0.919998H73.5225V20.92H76.0825V27H73.8425V23H57.0425ZM80.8963 23H78.4963V0.919998H80.7363V19.16H80.8963L93.5363 0.919998H95.9363V23H93.6963V4.76H93.5363L80.8963 23ZM106.826 16.28L102.186 23H99.6263L104.586 15.8C103.584 15.416 102.698 14.8933 101.93 14.232C101.61 13.9547 101.29 13.6347 100.97 13.272C100.65 12.9093 100.362 12.4933 100.106 12.024C99.8716 11.5547 99.6796 11.0427 99.5303 10.488C99.3809 9.912 99.3063 9.28267 99.3063 8.6C99.3063 7.55467 99.5089 6.57333 99.9143 5.656C100.32 4.71733 100.885 3.896 101.61 3.192C102.357 2.488 103.253 1.93333 104.298 1.528C105.344 1.12267 106.506 0.919998 107.786 0.919998H117.066V23H114.826V16.28H106.826ZM114.826 14.2V3H107.786C106.869 3 106.026 3.16 105.258 3.48C104.49 3.77867 103.829 4.19467 103.274 4.728C102.741 5.24 102.314 5.83733 101.994 6.52C101.696 7.18133 101.546 7.87467 101.546 8.6C101.546 9.32533 101.696 10.0293 101.994 10.712C102.314 11.3733 102.741 11.9707 103.274 12.504C103.829 13.016 104.49 13.432 105.258 13.752C106.026 14.0507 106.869 14.2 107.786 14.2H114.826ZM119.456 14.2V12.12H130.816V14.2H119.456ZM133.201 0.919998H135.441V10.84H148.081V0.919998H150.321V23H148.081V12.92H135.441V23H133.201V0.919998Z" fill="black"/>
</svg>
